<svg width="36" height="36" viewBox="0 0 36 36" fill="none" xmlns="http://www.w3.org/2000/svg">
<circle opacity="0.05" cx="18" cy="18" r="18" fill="#FF0000"/>
<path d="M21.7827 16.1064C21.905 16.1064 22.0163 16.1598 22.104 16.25C22.1856 16.3462 22.2272 16.4656 22.2153 16.5918C22.2153 16.6335 21.8884 20.7678 21.7017 22.5078C21.5847 23.5754 20.8961 24.2233 19.8638 24.2412C19.0699 24.259 18.2938 24.2656 17.5298 24.2656C16.7185 24.2656 15.9249 24.259 15.1548 24.2412C14.1569 24.2173 13.468 23.5577 13.3569 22.5078C13.1649 20.7617 12.8443 16.6335 12.8384 16.5918C12.8325 16.4656 12.8725 16.3462 12.9546 16.25C13.0357 16.1598 13.153 16.1064 13.2759 16.1064H21.7827ZM18.7896 12C19.3317 12.0001 19.8164 12.3783 19.9565 12.918L20.0562 13.3662C20.1374 13.731 20.4541 13.9893 20.8179 13.9893H22.606C22.8445 13.9893 23.0435 14.1874 23.0435 14.4395V14.6719C23.0435 14.9178 22.8445 15.122 22.606 15.1221H12.4409C12.2017 15.1221 12.0034 14.9178 12.0034 14.6719V14.4395C12.0034 14.1874 12.2017 13.9893 12.4409 13.9893H14.229C14.5923 13.9893 14.909 13.7305 14.9907 13.3662L15.0835 12.9482C15.229 12.3786 15.7083 12.0001 16.2563 12H18.7896Z" fill="#FF0000"/>
</svg>
